<svg xmlns="http://www.w3.org/2000/svg" width="15" height="10.844" viewBox="0 0 15 10.844"><path d="M-2313.633,406.155l4.43,4.429a.485.485,0,0,1,.137.356.481.481,0,0,1-.137.355l-4.43,4.43a.482.482,0,0,1-.355.137.457.457,0,0,1-.356-.151.51.51,0,0,1-.136-.355.463.463,0,0,1,.136-.342l3.582-3.582h-11.812a.455.455,0,0,1-.246-.068.552.552,0,0,1-.178-.178.452.452,0,0,1-.068-.246.46.46,0,0,1,.15-.356.494.494,0,0,1,.342-.136h11.812l-3.582-3.582a.465.465,0,0,1-.136-.342.513.513,0,0,1,.136-.356.459.459,0,0,1,.356-.15A.482.482,0,0,1-2313.633,406.155Z" transform="translate(2323.566 -405.518)" fill="red" stroke="red" stroke-width="1"/></svg>