<svg xmlns="http://www.w3.org/2000/svg" width="27.948" height="38" viewBox="0 0 27.948 38"><g transform="translate(-0.026)"><path d="M14.005,32.064a1.364,1.364,0,0,1-.741-.219c-.561-.363-5.525-3.617-7.09-6.31a7.4,7.4,0,0,1-1.052-3.919,5.644,5.644,0,0,1,1.653-4.188,5.433,5.433,0,0,1,3.8-1.477A4.727,4.727,0,0,1,14,17.257a4.715,4.715,0,0,1,3.423-1.306,5.428,5.428,0,0,1,3.8,1.477,5.647,5.647,0,0,1,1.651,4.188,7.4,7.4,0,0,1-1.053,3.919c-1.554,2.674-6.515,5.944-7.076,6.308A1.363,1.363,0,0,1,14.005,32.064ZM10.576,18.138a3.212,3.212,0,0,0-3.3,3.478,5.161,5.161,0,0,0,.752,2.805c.988,1.7,4.135,4.071,5.98,5.306,1.844-1.241,4.99-3.618,5.971-5.306a5.163,5.163,0,0,0,.754-2.805,3.211,3.211,0,0,0-3.3-3.478,2.453,2.453,0,0,0-2.368,1.273,1.186,1.186,0,0,1-2.108,0A2.463,2.463,0,0,0,10.576,18.138Z" fill="#11171d"/><path d="M18.653,9.077a1.071,1.071,0,0,1-.939-.561,1.1,1.1,0,0,1,.415-1.488l3.55-2.015a1.065,1.065,0,0,1,1.462.422,1.1,1.1,0,0,1-.415,1.488l-3.55,2.015A1.054,1.054,0,0,1,18.653,9.077Z" fill="#11171d"/><path d="M22.491,10.456a1.059,1.059,0,0,1-.294-.042l-3.911-1.13a1.1,1.1,0,0,1-.74-1.351,1.072,1.072,0,0,1,1.327-.753l3.911,1.13a1.1,1.1,0,0,1,.74,1.351A1.078,1.078,0,0,1,22.491,10.456Z" fill="#11171d"/><path d="M14,38A14.116,14.116,0,0,1,.026,23.777a16.851,16.851,0,0,1,3.617-9.949A32.162,32.162,0,0,1,8.776,8.416L7.4,4.123A3.159,3.159,0,0,1,7.831,1.3a3.041,3.041,0,0,1,2.5-1.3h7.335a3.041,3.041,0,0,1,2.5,1.3A3.158,3.158,0,0,1,20.6,4.123L19.186,8.534a1.071,1.071,0,0,1-1.355.7,1.1,1.1,0,0,1-.687-1.38l1.418-4.411a.962.962,0,0,0-.132-.86.926.926,0,0,0-.762-.4H10.333a.926.926,0,0,0-.762.4.962.962,0,0,0-.132.86L10.614,7.1h.162a1.077,1.077,0,0,1,1.019.745,1.105,1.105,0,0,1-.368,1.22C7.971,11.736,2.175,17.2,2.175,23.777A11.945,11.945,0,0,0,14,35.813,11.945,11.945,0,0,0,25.825,23.777a14.61,14.61,0,0,0-2.985-8.425,1.106,1.106,0,0,1,.245-1.526,1.062,1.062,0,0,1,1.5.249,16.763,16.763,0,0,1,3.389,9.7A14.116,14.116,0,0,1,14,38Z" fill="#11171d"/><path d="M18.021,9.288H10.776a1.094,1.094,0,0,1,0-2.188h7.245a1.094,1.094,0,0,1,0,2.188Z" fill="#11171d"/></g></svg>