<svg xmlns="http://www.w3.org/2000/svg" width="79.194" height="70.722" viewBox="0 0 79.194 70.722">
  <path id="Icon_awesome-piggy-bank" data-name="Icon awesome-piggy-bank" d="M74.07,29.628h-3.9a21.229,21.229,0,0,0-4.947-6.944l2.5-9.986H63.488a12.618,12.618,0,0,0-9.656,4.537,20.978,20.978,0,0,0-3.042-.3H33.86A21.184,21.184,0,0,0,13.12,33.861H7.406A3.178,3.178,0,0,1,4.3,30.052a3.258,3.258,0,0,1,3.241-2.54H7.67a.8.8,0,0,0,.794-.794V24.073a.8.8,0,0,0-.794-.794A7.577,7.577,0,0,0,.065,29.708a7.413,7.413,0,0,0,7.341,8.386H12.7a21.078,21.078,0,0,0,8.465,16.838V65.606a2.123,2.123,0,0,0,2.116,2.116h8.465a2.123,2.123,0,0,0,2.116-2.116V59.257H50.79v6.349a2.123,2.123,0,0,0,2.116,2.116h8.465a2.123,2.123,0,0,0,2.116-2.116V54.932a21.166,21.166,0,0,0,4.14-4.14H74.07a2.123,2.123,0,0,0,2.116-2.116V31.745A2.123,2.123,0,0,0,74.07,29.628ZM57.139,38.094a2.116,2.116,0,1,1,2.116-2.116A2.123,2.123,0,0,1,57.139,38.094ZM33.86,12.7H50.79c.714,0,1.415.053,2.1.106,0-.04.013-.066.013-.106a12.7,12.7,0,0,0-25.4,0c0,.278.066.542.079.82A25.143,25.143,0,0,1,33.86,12.7Z" transform="translate(1.508 1.5)" fill="none" stroke="#000" stroke-width="3"/>
</svg>
