<svg xmlns="http://www.w3.org/2000/svg" width="82.446" height="66.356" viewBox="0 0 82.446 66.356">
  <path id="Icon_awesome-hands-helping" data-name="Icon awesome-hands-helping" d="M61.323,24.126h-19.1v7.037a9.048,9.048,0,1,1-18.1,0V15.882l-8.155,4.9a8.025,8.025,0,0,0-3.908,6.886v5.944L2.012,39.418A4.011,4.011,0,0,0,.542,44.91L10.594,62.326a4.022,4.022,0,0,0,5.491,1.47l12.993-7.5H46.244a8.05,8.05,0,0,0,8.042-8.042H56.3a4.017,4.017,0,0,0,4.021-4.021V36.189h1.005a3.009,3.009,0,0,0,3.016-3.016V27.141A3.009,3.009,0,0,0,61.323,24.126Zm18.56-4.7L69.83,2.009A4.022,4.022,0,0,0,64.339.539l-12.993,7.5H38.5a8.1,8.1,0,0,0-4.26,1.219l-4.21,2.626a3.994,3.994,0,0,0-1.885,3.405V31.162a5.026,5.026,0,0,0,10.053,0V20.1H61.323a7.041,7.041,0,0,1,7.037,7.037v3.581l10.053-5.805a4.025,4.025,0,0,0,1.47-5.491Z" transform="translate(1.014 1.01)" fill="none" stroke="#000" stroke-width="2"/>
</svg>
