<svg xmlns="http://www.w3.org/2000/svg" width="48.746" height="62.441" viewBox="0 0 48.746 62.441">
  <path id="Icon_ionic-ios-hand" data-name="Icon ionic-ios-hand" d="M49.448,13.275a2.991,2.991,0,0,0-3.014,2.943V31.846a1.272,1.272,0,0,1-2.543,0V8.789a3.015,3.015,0,0,0-6.028,0V26.9a1.272,1.272,0,0,1-2.543,0V6.318a3.015,3.015,0,0,0-6.028,0V29.374a1.272,1.272,0,0,1-2.543,0V11.26a3.015,3.015,0,0,0-6.028,0V42.445l-3.971-3.371c-3.728-3.243-6.886-4.628-9.457-2.243-1.729,1.686.986,4.414,3.828,7.6,2.743,3.071,10,13.128,16.185,16.757a11.153,11.153,0,0,0,5.8,1.629h8.171c6.586,0,11.2-5.414,11.2-13.314V16.217A3.013,3.013,0,0,0,49.448,13.275Z" transform="translate(-5.231 -1.875)" fill="none" stroke="#000" stroke-width="3"/>
</svg>
