<svg xmlns="http://www.w3.org/2000/svg" width="33.886" height="37" viewBox="0 0 33.886 37"><g transform="translate(-0.391)"><g transform="translate(0.334)"><path d="M17,16.286a1.061,1.061,0,0,1-.746-.306l-4.479-4.436H3.338A3.2,3.2,0,0,1,.129,8.366V3.178A3.2,3.2,0,0,1,3.338,0H30.662a3.2,3.2,0,0,1,3.209,3.178V8.366a3.2,3.2,0,0,1-3.209,3.178H22.225L17.746,15.98A1.061,1.061,0,0,1,17,16.286ZM3.338,2.091a1.094,1.094,0,0,0-1.1,1.087V8.366a1.094,1.094,0,0,0,1.1,1.087h8.875a1.061,1.061,0,0,1,.746.306l4.041,4,4.041-4a1.061,1.061,0,0,1,.746-.306h8.875a1.094,1.094,0,0,0,1.1-1.087V3.178a1.094,1.094,0,0,0-1.1-1.087Z" fill="#11171d"/><path d="M7.083,3.218A1.533,1.533,0,0,1,8.825,4.873V6.69A1.533,1.533,0,0,1,7.083,8.345H5.83c-.29,0-.482-.154-.482-.33V3.548c0-.175.191-.33.482-.33Zm-.63.954V7.391h.63c.4,0,.637-.224.637-.7V4.873c0-.477-.241-.7-.637-.7Z" fill="#11171d"/><path d="M9.469,6.732V4.873A1.527,1.527,0,0,1,11.2,3.218a1.533,1.533,0,0,1,1.742,1.655V6.732A1.533,1.533,0,0,1,11.2,8.387,1.527,1.527,0,0,1,9.469,6.732Zm2.372-1.858c0-.484-.241-.7-.637-.7s-.63.217-.63.7V6.732c0,.484.234.7.63.7s.637-.217.637-.7Z" fill="#11171d"/><path d="M16.1,8.05,14.759,5.624V8.008c0,.224-.276.337-.552.337s-.552-.112-.552-.337V3.555c0-.231.276-.337.552-.337.4,0,.545.035.814.547l1.147,2.167V3.548c0-.231.276-.33.552-.33s.552.1.552.33v4.46c0,.224-.276.337-.552.337A.62.62,0,0,1,16.1,8.05Z" fill="#11171d"/><path d="M17.683,7.9a.357.357,0,0,1,.014-.077l1.317-4.278c.078-.245.4-.365.722-.365s.644.119.722.365l1.324,4.278A.359.359,0,0,1,21.8,7.9c0,.259-.4.449-.708.449-.177,0-.319-.056-.361-.2l-.241-.877H18.993l-.241.877c-.042.147-.184.2-.361.2C18.087,8.345,17.683,8.156,17.683,7.9Zm2.57-1.473-.517-1.879L19.22,6.423Z" fill="#11171d"/><path d="M24.828,3.218c.234,0,.333.252.333.484,0,.266-.12.5-.333.5h-.977V8.008c0,.224-.276.337-.552.337s-.552-.112-.552-.337V4.2h-.977c-.212,0-.333-.231-.333-.5,0-.232.1-.484.333-.484Z" fill="#11171d"/><path d="M26.7,5.357h1.062c.212,0,.333.2.333.428,0,.189-.1.414-.333.414H26.7V7.391h1.9c.212,0,.333.224.333.484,0,.224-.1.47-.333.47H26.081c-.241,0-.482-.112-.482-.337V3.555c0-.224.241-.337.482-.337H28.6c.234,0,.333.246.333.47,0,.259-.12.484-.333.484H26.7Z" fill="#11171d"/><path d="M29.031,37H4.968A2.639,2.639,0,0,1,2.32,34.377V20.434a1.055,1.055,0,0,1,2.111,0V34.377a.536.536,0,0,0,.538.533H29.032a.536.536,0,0,0,.538-.533V26.024a1.055,1.055,0,0,1,2.111,0v8.353A2.639,2.639,0,0,1,29.031,37Z" fill="#11171d"/><path d="M30.114,21.479H3.886a3.793,3.793,0,1,1,0-7.585H9.927a1.045,1.045,0,1,1,0,2.091H3.886a1.7,1.7,0,1,0,0,3.4H30.114a1.7,1.7,0,1,0,0-3.4H24.073a1.045,1.045,0,1,1,0-2.091h6.041a3.793,3.793,0,1,1,0,7.585Z" fill="#11171d"/></g></g></svg>