<svg id="Page-1" xmlns="http://www.w3.org/2000/svg" width="32" height="37" viewBox="0 0 32 37">
  <g id="heart">
    <path id="Shape" d="M31.16,15.957A24.391,24.391,0,0,0,32,10.747,2.35,2.35,0,0,0,29.749,8.3l-.087,0a2.249,2.249,0,0,0-.579-1.077,2.345,2.345,0,0,0-3.62.282,2.107,2.107,0,0,0-.54-.1,2.239,2.239,0,0,0-2.286,2c-.028.516-.077,1.01-.14,1.48a2.429,2.429,0,0,0-1.205.157,2.355,2.355,0,0,0-1.4,1.526,12.182,12.182,0,0,1-1.819,3.891A10.2,10.2,0,0,0,16,21.514a10.378,10.378,0,0,0-.519-2.222,10.175,10.175,0,0,0-.554-1.269l0-.006-.014-.025a10.245,10.245,0,0,0-.688-1.128c-.1-.145-.2-.279-.3-.408h0A12.2,12.2,0,0,1,12.1,12.564a2.357,2.357,0,0,0-1.4-1.525,2.431,2.431,0,0,0-1.2-.157c-.066-.493-.114-.988-.141-1.479h0a2.239,2.239,0,0,0-2.288-2,2.1,2.1,0,0,0-.538.1,2.353,2.353,0,0,0-3.9.069,2.25,2.25,0,0,0-.3.726l-.089,0a2.387,2.387,0,0,0-1.768.919A2.3,2.3,0,0,0,0,10.747a24.382,24.382,0,0,0,.837,5.215,2.244,2.244,0,0,0-.329.323L.5,16.3l-.007.008a2.184,2.184,0,0,0-.431,1.857l1.076,4.747A6.06,6.06,0,0,0,3.3,26.33l1.671,1.312a8.6,8.6,0,0,0,1.184.781v5.841a.687.687,0,0,0,1.373,0V29.025a8.735,8.735,0,0,0,.911.256A.7.7,0,0,0,8.6,29.3a.684.684,0,0,0,.669-.524.673.673,0,0,0-.517-.805,7.347,7.347,0,0,1-1.6-.556,7.2,7.2,0,0,1-1.315-.821L4.162,25.279a4.712,4.712,0,0,1-1.689-2.655L1.4,17.876a.864.864,0,0,1,.167-.729h0l.006-.006a.886.886,0,0,1,.341-.26.988.988,0,0,1,.145-.048,1.535,1.535,0,0,1,.895.05,1.5,1.5,0,0,1,.87.833c.005.015.011.03.018.045a1.373,1.373,0,0,1,.054.172l.774,3.253a.686.686,0,0,0,.775.512,7.331,7.331,0,0,1,3.881.561.694.694,0,0,0,.925-.29.666.666,0,0,0-.3-.906,8.387,8.387,0,0,0-4.084-.754l-.6-2.521c.127-.069.286-.148.478-.23a7.314,7.314,0,0,1,1.029-.347A9,9,0,0,1,7.859,17a10.217,10.217,0,0,1,1.154-.085,12.2,12.2,0,0,1,1.244.041l.019,0H10.3c.138.012.268.023.4.04a.684.684,0,0,0,.774-.574.675.675,0,0,0-.586-.759l-.1-.012a17.735,17.735,0,0,1-1.058-3.443,1.039,1.039,0,0,1,.46.071,1.008,1.008,0,0,1,.6.653,13.659,13.659,0,0,0,2.044,4.332h0c.088.113.175.231.265.358a8.945,8.945,0,0,1,.611,1l0,.008a8.837,8.837,0,0,1,.477,1.094,9.214,9.214,0,0,1,.51,2.6,12.194,12.194,0,0,1-1.138,5.613.661.661,0,0,0-.075.306v8.073a.687.687,0,0,0,1.373,0v-7.92A13.605,13.605,0,0,0,16,24.3q.017.146.037.293a13.642,13.642,0,0,0,1.107,3.811v7.92a.687.687,0,0,0,1.373,0V28.254a.663.663,0,0,0-.075-.306c-.031-.058-2.994-5.878.729-10.677a13.639,13.639,0,0,0,2.045-4.332,1.008,1.008,0,0,1,.6-.653,1.04,1.04,0,0,1,.46-.072,17.773,17.773,0,0,1-1.058,3.444l-.09.009a.676.676,0,0,0-.6.749A.685.685,0,0,0,21.29,17c.143-.017.286-.032.427-.044a8.971,8.971,0,0,1,5.015.831l-.595,2.5a5.83,5.83,0,0,0-4.231,1.14.663.663,0,0,0-.057.95.7.7,0,0,0,.969.056c1.364-1.188,3.685-.745,3.707-.741a.687.687,0,0,0,.808-.506l.774-3.253a1.471,1.471,0,0,1,.684-.927,1.525,1.525,0,0,1,1.154-.173.874.874,0,0,1,.658,1.044l-1.076,4.747a4.714,4.714,0,0,1-1.69,2.656l-1.671,1.313a7.3,7.3,0,0,1-2.913,1.376.673.673,0,0,0-.518.8.684.684,0,0,0,.669.524.7.7,0,0,0,.152-.017,8.625,8.625,0,0,0,.911-.256v5.239a.687.687,0,0,0,1.373,0V28.421a8.553,8.553,0,0,0,1.184-.779L28.7,26.33a6.061,6.061,0,0,0,2.172-3.415l1.076-4.747A2.189,2.189,0,0,0,31.16,15.957ZM3.434,15.623a2.932,2.932,0,0,0-1.311-.164,23.169,23.169,0,0,1-.748-4.784.969.969,0,0,1,.2-.645,1.009,1.009,0,0,1,.747-.389h0a1,1,0,0,1,.408.062.985.985,0,0,1,.647.868,20.212,20.212,0,0,0,1.1,5.722A2.882,2.882,0,0,0,3.434,15.623Zm2.988.287c-.191.05-.378.106-.561.166A18.651,18.651,0,0,1,4.749,10.5,2.321,2.321,0,0,0,3.666,8.667.916.916,0,0,1,3.8,8.285.959.959,0,0,1,5.545,8.6a.845.845,0,0,1,.018.152,23.885,23.885,0,0,0,1.281,7.061C6.7,15.842,6.56,15.875,6.422,15.91Zm2.565-.341c-.256,0-.51.019-.762.039a22.45,22.45,0,0,1-1.287-6.82.7.7,0,0,1,.21-.045.883.883,0,0,1,.843.731,20.577,20.577,0,0,0,.268,2.357.63.63,0,0,0,.013.077,20.3,20.3,0,0,0,1,3.66C9.175,15.568,9.08,15.568,8.987,15.569Zm14.788.039c-.33-.027-.678-.043-1.047-.042a20.208,20.208,0,0,0,1.281-6.093.881.881,0,0,1,.842-.73.7.7,0,0,1,.211.045A22.458,22.458,0,0,1,23.775,15.609ZM27.251,10.5a18.652,18.652,0,0,1-1.112,5.577,9.5,9.5,0,0,0-.982-.266,23.9,23.9,0,0,0,1.28-7.06.92.92,0,0,1,.3-.652.967.967,0,0,1,1.345.042.919.919,0,0,1,.251.53A2.318,2.318,0,0,0,27.251,10.5Zm3.375.176a23.177,23.177,0,0,1-.748,4.784,2.921,2.921,0,0,0-2.357.829,20.219,20.219,0,0,0,1.1-5.717,1,1,0,0,1,2,.1Z" fill="#11171d"/>
    <path id="Shape-2" data-name="Shape" d="M21.219,1.426A4.2,4.2,0,0,0,18.143,0a4.146,4.146,0,0,0-2.651.885A4.144,4.144,0,0,0,12.842,0,4.2,4.2,0,0,0,9.766,1.426,4.486,4.486,0,0,0,8.638,4.592a4.681,4.681,0,0,0,1.3,3.1l3.156,3.277a3.307,3.307,0,0,0,4.8,0L21.049,7.69a4.679,4.679,0,0,0,1.3-3.1A4.485,4.485,0,0,0,21.219,1.426ZM20.109,6.72,16.953,10a2.012,2.012,0,0,1-2.921,0L10.876,6.72a3.256,3.256,0,0,1-.138-4.359,2.908,2.908,0,0,1,2.127-.987h.054a2.9,2.9,0,0,1,2.1.905.648.648,0,0,0,.94,0,2.9,2.9,0,0,1,4.284.082A3.256,3.256,0,0,1,20.109,6.72Z" fill="#11171d"/>
    <circle id="Oval" cx="1" cy="1" r="1" transform="translate(12.206 4.5)" fill="#11171d"/>
    <circle id="Oval-2" data-name="Oval" cx="1" cy="1" r="1" transform="translate(17.794 4.5)" fill="#11171d"/>
  </g>
</svg>
