<svg xmlns="http://www.w3.org/2000/svg" width="60" height="44.531" viewBox="0 0 60 44.531">
  <path id="Path_1372" data-name="Path 1372" d="M-1875.686-1121.131a1.473,1.473,0,0,1,1.084.44,1.473,1.473,0,0,1,.44,1.084,1.406,1.406,0,0,1-.44,1.025,1.471,1.471,0,0,1-1.084.439h-5.449a1.405,1.405,0,0,1-1.026-.439,1.405,1.405,0,0,1-.439-1.025,1.472,1.472,0,0,1,.439-1.084,1.407,1.407,0,0,1,1.026-.44Zm44.473-14.648a13.376,13.376,0,0,1,3.1,4.57,14.258,14.258,0,0,1,1.055,5.449,14.108,14.108,0,0,1-1.055,5.391,13.366,13.366,0,0,1-3.1,4.57l-20.039,20.039a.885.885,0,0,1-.469.322,1.853,1.853,0,0,1-.527.088,2.013,2.013,0,0,1-.586-.088.877.877,0,0,1-.469-.322l-20.039-20.039a12.791,12.791,0,0,1-3.106-4.687,13.887,13.887,0,0,1-1.054-5.3,13.887,13.887,0,0,1,1.054-5.3,12.783,12.783,0,0,1,3.106-4.687,13.775,13.775,0,0,1,4.57-3.047,14.107,14.107,0,0,1,5.391-1.055,14.1,14.1,0,0,1,5.39,1.055,13.8,13.8,0,0,1,4.571,3.047l1.172,1.113,1.113-1.113a13.774,13.774,0,0,1,4.57-3.047,14.107,14.107,0,0,1,5.391-1.055,14.1,14.1,0,0,1,5.39,1.055,13.8,13.8,0,0,1,4.571,3.047Zm2.168,14.707a.962.962,0,0,1,.7.293.96.96,0,0,1,.293.7,1.2,1.2,0,0,1-.176.674.654.654,0,0,1-.586.263h-14.883a2.02,2.02,0,0,1-.644-.117.708.708,0,0,1-.469-.41l-1.465-3.223-4.629,13.067a.993.993,0,0,1-.381.468.978.978,0,0,1-.556.176.94.94,0,0,1-.586-.176,1.053,1.053,0,0,1-.352-.468l-5.625-15.586-2.988,6.269a1.466,1.466,0,0,1-.264.381.516.516,0,0,1-.381.147h-12.949a1.371,1.371,0,0,1-.791-.264.792.792,0,0,1-.381-.674.958.958,0,0,1,.293-.7.96.96,0,0,1,.7-.293h12.247l3.691-7.91a1.525,1.525,0,0,1,.41-.381.977.977,0,0,1,.527-.146.949.949,0,0,1,.586.175,1.084,1.084,0,0,1,.352.469l5.508,15.234,4.511-12.773a1.069,1.069,0,0,1,.352-.469.855.855,0,0,1,.527-.176,1.14,1.14,0,0,1,.557.147.849.849,0,0,1,.381.439l2.226,4.864Zm-4.219,3.164a10.846,10.846,0,0,0,3.223-7.881,10.849,10.849,0,0,0-3.223-7.881,11.112,11.112,0,0,0-3.633-2.432,11.08,11.08,0,0,0-4.277-.849,11.077,11.077,0,0,0-4.278.849,10.481,10.481,0,0,0-3.574,2.432l-2.226,2.168a1.307,1.307,0,0,1-1.026.469,1.3,1.3,0,0,1-1.025-.469l-2.227-2.168a10.481,10.481,0,0,0-3.574-2.432,11.08,11.08,0,0,0-4.277-.849,11.078,11.078,0,0,0-4.278.849,11.1,11.1,0,0,0-3.632,2.432,10.846,10.846,0,0,0-3.223,7.881,10.842,10.842,0,0,0,3.223,7.881l19.043,18.984Zm10.225-3.252a1.405,1.405,0,0,1,.439,1.025,1.472,1.472,0,0,1-.439,1.084,1.409,1.409,0,0,1-1.026.44h-4.512a1.406,1.406,0,0,1-1.025-.44,1.472,1.472,0,0,1-.439-1.084,1.405,1.405,0,0,1,.439-1.025,1.406,1.406,0,0,1,1.025-.44h4.512A1.409,1.409,0,0,1-1823.039-1121.16Z" transform="translate(1882.6 1139.881)" fill="#11171d"/>
</svg>
